<svg width="70" height="70" viewBox="0 0 70 70" fill="none" xmlns="http://www.w3.org/2000/svg">
<circle cx="35" cy="35" r="35" fill="white"/>
<path d="M9.1001 13.9011C9.1281 14.1203 9.1561 14.3396 9.1841 14.5589C12.2151 12.1269 15.4561 8.47897 19.9641 10.6319C30.5061 15.6752 28.5111 55.1582 21.4761 55.3044C18.6761 55.3642 17.5771 52.4073 17.1571 49.1115C14.9521 31.9614 28.9171 8.92417 36.6451 8.69825C38.7451 8.63845 41.0691 10.1933 41.9301 11.4359C44.8771 15.6553 42.4201 20.7518 41.8951 22.1472C39.7321 27.9082 31.0801 36.7855 23.7931 34.9516C22.8341 34.7124 22.8411 33.0512 25.0111 33.4698C29.1271 34.2738 35.3081 57.6699 50.0221 57.6699C53.5221 57.6699 56.7561 56.4871 66.8221 46.3739C57.6031 54.9588 53.5221 55.012 50.7221 55.012C38.0451 55.012 31.1221 29.0976 21.2871 31.9016C19.3271 32.6459 18.8441 34.8652 21.0981 35.9416C24.4651 37.5497 33.0471 35.4699 39.9631 29.071C53.2001 16.8248 47.2501 3.4622 36.2181 5.40911C29.8761 6.53207 21.0701 19.2102 17.2061 33.0512C13.5731 46.0549 14.5111 61.4773 23.3801 59.1118C33.0261 56.5336 31.5911 12.1668 20.4121 8.57864C16.7021 7.38924 12.5721 10.4458 9.1001 13.9011Z" fill="#005961"/>
</svg>
