<svg width="36" height="36" viewBox="0 0 36 36" fill="none" xmlns="http://www.w3.org/2000/svg">
<path d="M30.8518 10.5565C30.7943 10.4795 30.7223 10.4145 30.6398 10.3654C30.5572 10.3162 30.4658 10.2838 30.3707 10.27C30.2757 10.2562 30.1788 10.2613 30.0857 10.2849C29.9926 10.3086 29.9051 10.3503 29.8281 10.4078L18.0338 19.2115C17.9916 19.2432 17.9403 19.2603 17.8875 19.2603C17.8348 19.2603 17.7835 19.2432 17.7413 19.2115L6.17849 10.3688C6.10215 10.3106 6.01509 10.2679 5.92227 10.2433C5.82945 10.2187 5.73269 10.2126 5.63752 10.2254C5.54234 10.2382 5.45062 10.2696 5.36759 10.3178C5.28456 10.3661 5.21184 10.4302 5.15358 10.5065C5.09533 10.5829 5.05268 10.6699 5.02808 10.7627C5.00347 10.8556 4.99739 10.9523 5.01017 11.0475C5.02296 11.1427 5.05437 11.2344 5.1026 11.3174C5.15084 11.4005 5.21496 11.4732 5.29129 11.5314L14.3826 18.4852L5.39123 25.261C5.31377 25.3188 5.24845 25.3913 5.19899 25.4743C5.14954 25.5573 5.11692 25.6492 5.103 25.7449C5.08908 25.8405 5.09414 25.9379 5.11787 26.0316C5.1416 26.1253 5.18355 26.2133 5.24133 26.2908C5.2991 26.3683 5.37157 26.4336 5.45459 26.483C5.5376 26.5325 5.62955 26.5651 5.72517 26.579C5.8208 26.5929 5.91823 26.5879 6.0119 26.5641C6.10557 26.5404 6.19365 26.4985 6.27111 26.4407L15.5891 19.4065L16.8516 20.3814C17.146 20.6068 17.5058 20.7301 17.8765 20.7327C18.2473 20.7354 18.6088 20.6172 18.9063 20.3961L20.2322 19.4065L29.6599 26.4407C29.7369 26.4981 29.8244 26.5399 29.9175 26.5635C30.0106 26.5871 30.1075 26.5922 30.2025 26.5784C30.2976 26.5646 30.389 26.5322 30.4716 26.483C30.5541 26.4339 30.6261 26.369 30.6836 26.292C30.7411 26.215 30.7828 26.1275 30.8064 26.0344C30.83 25.9413 30.8351 25.8444 30.8213 25.7494C30.8075 25.6543 30.7751 25.5629 30.7259 25.4804C30.6768 25.3978 30.6119 25.3258 30.5349 25.2683L21.4534 18.4827L30.7031 11.5729C30.8565 11.457 30.9581 11.2854 30.986 11.0952C31.0138 10.905 30.9656 10.7114 30.8518 10.5565V10.5565Z" fill="white"/>
<path d="M30.25 7H5.75C4.75544 7 3.80161 7.39509 3.09835 8.09835C2.39509 8.80161 2 9.75544 2 10.75L2 25.75C2 26.7446 2.39509 27.6984 3.09835 28.4017C3.80161 29.1049 4.75544 29.5 5.75 29.5H30.25C31.2446 29.5 32.1984 29.1049 32.9017 28.4017C33.6049 27.6984 34 26.7446 34 25.75V10.75C34 9.75544 33.6049 8.80161 32.9017 8.09835C32.1984 7.39509 31.2446 7 30.25 7ZM32.5 25.75C32.5 26.3467 32.2629 26.919 31.841 27.341C31.419 27.7629 30.8467 28 30.25 28H5.75C5.15326 28 4.58097 27.7629 4.15901 27.341C3.73705 26.919 3.5 26.3467 3.5 25.75V10.75C3.5 10.1533 3.73705 9.58097 4.15901 9.15901C4.58097 8.73705 5.15326 8.5 5.75 8.5H30.25C30.8467 8.5 31.419 8.73705 31.841 9.15901C32.2629 9.58097 32.5 10.1533 32.5 10.75V25.75Z" fill="white"/>
</svg>
