<svg width="36" height="36" viewBox="0 0 36 36" fill="none" xmlns="http://www.w3.org/2000/svg">
<path d="M29.2617 4.30996C28.9427 4.32396 28.6322 4.41275 28.3521 4.52488C28.075 4.63627 26.4792 5.31735 24.1228 6.32484C21.7664 7.33232 18.7032 8.64428 15.6668 9.94521C9.59383 12.5471 3.62614 15.1071 3.62614 15.1071L3.66963 15.0905C3.66963 15.0905 3.30945 15.2109 2.94428 15.4653C2.76169 15.5925 2.56526 15.7568 2.40442 15.9962C2.24359 16.2357 2.126 16.575 2.17031 16.9339C2.32596 18.1946 3.63254 18.5522 3.63254 18.5522L3.63765 18.5548L9.46863 20.5505C9.61729 21.0464 11.2372 26.453 11.5935 27.598C11.7903 28.2311 11.9745 28.5962 12.1666 28.8453C12.2628 28.97 12.3635 29.0665 12.4749 29.137C12.5192 29.165 12.5658 29.1861 12.6118 29.2048C12.6128 29.2053 12.6134 29.2044 12.6144 29.2048C12.62 29.2073 12.6254 29.2075 12.631 29.2099L12.6157 29.2061C12.6264 29.2104 12.6369 29.2177 12.6476 29.2214C12.6684 29.2287 12.6812 29.2285 12.7078 29.2342C13.3756 29.4674 13.9282 29.0347 13.9282 29.0347L13.9512 29.0168L17.5332 25.6945L23.3463 30.227L23.4192 30.2602C24.4367 30.712 25.3569 30.46 25.8665 30.0453C26.3761 29.6307 26.5765 29.0961 26.5765 29.0961L26.5982 29.0398L30.8698 6.77642C30.9791 6.27834 30.9946 5.8478 30.8915 5.45876C30.7884 5.06972 30.538 4.73152 30.2237 4.54407C29.9095 4.35662 29.5807 4.29597 29.2617 4.30996ZM29.2962 5.6417C29.4258 5.6357 29.5218 5.65051 29.5521 5.66856C29.5824 5.68662 29.596 5.68424 29.625 5.79393C29.6541 5.90362 29.6698 6.13466 29.5905 6.49626L29.5879 6.50393L25.3407 28.6381C25.3306 28.6604 25.2421 28.8651 25.0401 29.0296C24.8339 29.1973 24.6046 29.3282 23.9962 29.0731L17.6394 24.1158L17.4603 23.9751L17.4565 23.9789L15.5555 22.5525L26.2388 9.98359C26.3208 9.88726 26.3733 9.76921 26.3897 9.64372C26.4061 9.51823 26.3858 9.39066 26.3313 9.27645C26.2768 9.16224 26.1903 9.06627 26.0824 9.00015C25.9745 8.93403 25.8497 8.90059 25.7232 8.90387C25.5996 8.90708 25.4794 8.94523 25.3765 9.01389L9.91766 19.3198L4.07773 17.3203C4.07773 17.3203 3.49782 16.9976 3.47007 16.7727C3.46853 16.7603 3.46168 16.7716 3.49181 16.7267C3.52195 16.6818 3.59769 16.6061 3.69266 16.5399C3.8826 16.4076 4.09947 16.3276 4.09947 16.3276L4.12122 16.3199L4.14297 16.3109C4.14297 16.3109 10.111 13.7507 16.1836 11.149C19.2199 9.84815 22.2825 8.53715 24.6384 7.52992C26.9936 6.52295 28.6954 5.79813 28.8395 5.7402C29.0036 5.67451 29.1667 5.6477 29.2962 5.6417ZM22.2116 12.6982L14.1099 22.2302L14.106 22.234C14.0934 22.2492 14.0814 22.265 14.0702 22.2813C14.0574 22.2991 14.0454 22.3174 14.0344 22.3363C13.9889 22.4136 13.9597 22.4994 13.9487 22.5884C13.9487 22.5901 13.9487 22.5918 13.9487 22.5935L12.8933 27.3396C12.8757 27.2883 12.8634 27.2696 12.8447 27.2091V27.2079C12.5094 26.1307 10.9811 21.0318 10.7697 20.3266L22.2116 12.6982ZM15.0246 23.7922L16.4804 24.8847L14.3414 26.8676L15.0246 23.7922Z" fill="white"/>
</svg>
