<svg width="36" height="23" viewBox="0 0 36 23" fill="none" xmlns="http://www.w3.org/2000/svg">
<path d="M21.4671 15.1296C22.2372 14.9419 25.1051 17.7889 25.8942 18.7716C26.9149 19.9076 27.5308 20.5934 28.7287 20.5934H32.0843C33.0187 20.5934 33.4878 20.2236 33.7169 19.9136C34.7142 18.3069 32.9074 16.4672 30.9343 14.1138C30.256 13.2364 28.9259 12.2741 28.4707 11.4161C30.855 7.50052 36.0852 1.14325 31.6052 1.001H28.2501C27.5628 1.001 26.6409 1.24008 26.1488 2.38855C26.1323 2.42948 24.4623 6.48082 22.1778 9.01585C21.522 9.62527 21.2155 10.0196 21.2709 9.57586V5.25C21.2584 4.34759 19.9053 4.3396 19.8903 5.25V9.57586C19.8903 10.7084 20.5212 11.2244 21.1077 11.2244C24.067 10.9699 27.4954 2.73244 27.422 2.92211C27.5683 2.58021 27.751 2.38206 28.2496 2.38206H31.6047C31.8702 2.38206 31.994 2.42998 31.993 2.41351C31.9995 2.43547 32.0049 2.53279 31.95 2.71597C31.987 2.96852 30.858 5.55446 27.5293 10.2786C26.043 12.1044 28.7961 13.5958 29.8892 15.0173C30.6513 15.9232 33.8632 19.421 32.0843 19.2143H28.7287C28.1712 19.2143 27.8722 18.9094 26.9209 17.8502C25.458 16.1093 22.7044 13.5399 21.4671 13.751C20.0815 13.751 19.8903 14.6354 19.8903 15.5912V18.6104C19.8903 18.9738 19.8903 19.2143 18.1843 19.2143C14.686 19.2143 11.0719 17.0312 8.51193 13.3682C4.29687 7.48156 3.34455 3.19313 3.34455 2.64909C3.34455 2.26826 3.03559 1.95881 2.65427 1.95881C0.598897 1.89542 3.71989 9.0453 7.38442 14.1638C10.1984 18.1896 14.2353 20.5929 18.1838 20.5929C20.0366 20.5929 21.2704 20.2555 21.2704 18.6089V15.5897C21.2988 15.2154 21.2055 15.1031 21.4671 15.1296Z" fill="white"/>
<path d="M9.31516 2.71647C9.00121 1.88594 8.55001 1 7.15946 1H4.32697C3.42556 1.01497 3.41508 2.36359 4.32697 2.38056H7.15946C7.58871 2.38056 7.72547 2.4155 8.01595 3.18314C9.32664 7.03684 12.2849 12.613 14.2055 12.613C15.5192 12.613 15.5192 11.2893 15.5192 10.653L15.5177 5.67225C15.1568 1.3409 11.0172 2.54078 19.8226 2.39753C19.8341 2.4175 19.8905 2.53229 19.8905 2.91262C19.903 3.81902 21.2571 3.81952 21.271 2.91262C21.271 1.64386 20.7165 1.0005 19.6225 1.0005H14.3493C12.6977 1.06588 12.3987 2.79134 13.3535 3.70772C13.6869 4.12349 14.0653 4.59415 14.1386 5.71667C14.1287 5.96473 14.1651 11.1092 14.1127 11.1815C13.2906 10.7029 10.9163 7.42416 9.31516 2.71647Z" fill="white"/>
</svg>
